<svg width="1344" height="768" viewBox="0 0 1344 768" fill="none" xmlns="http://www.w3.org/2000/svg">
  <rect width="1344" height="768" rx="32" fill="#F6F7F9"/>
  <rect x="72" y="72" width="1200" height="624" rx="28" fill="white" stroke="#D7DCE5" stroke-width="2"/>
  <text x="112" y="132" fill="#111827" font-family="Inter, Apple SD Gothic Neo, sans-serif" font-size="34" font-weight="700">문서를 가리지 않는 오버레이 도구</text>
  <text x="112" y="172" fill="#6B7280" font-family="Inter, Apple SD Gothic Neo, sans-serif" font-size="20">평소에는 작은 버튼만 남기고, 필요할 때 연결 정보와 설정을 열어 확인해요.</text>

  <rect x="112" y="230" width="430" height="338" rx="18" fill="#F9FAFB" stroke="#E5E7EB"/>
  <text x="144" y="278" fill="#111827" font-family="Inter, Apple SD Gothic Neo, sans-serif" font-size="25" font-weight="700">닫힌 상태</text>
  <rect x="144" y="318" width="330" height="18" rx="9" fill="#D1D5DB"/>
  <rect x="144" y="362" width="284" height="18" rx="9" fill="#D1D5DB"/>
  <rect x="144" y="406" width="360" height="18" rx="9" fill="#D1D5DB"/>
  <circle cx="206" cy="496" r="46" fill="#2F343B" stroke="#111827" stroke-width="3"/>
  <rect x="184" y="475" width="44" height="5" rx="2.5" fill="white"/>
  <rect x="184" y="494" width="44" height="5" rx="2.5" fill="white"/>
  <rect x="184" y="513" width="44" height="5" rx="2.5" fill="white"/>
  <circle cx="250" cy="530" r="13" fill="#3B82F6" stroke="#111827" stroke-width="4"/>
  <text x="286" y="506" fill="#374151" font-family="Inter, Apple SD Gothic Neo, sans-serif" font-size="18">본문은 계속 보이고</text>
  <text x="286" y="532" fill="#374151" font-family="Inter, Apple SD Gothic Neo, sans-serif" font-size="18">상태만 작게 남겨요</text>

  <rect x="626" y="230" width="586" height="338" rx="18" fill="#F9FAFB" stroke="#E5E7EB"/>
  <text x="658" y="278" fill="#111827" font-family="Inter, Apple SD Gothic Neo, sans-serif" font-size="25" font-weight="700">열린 상태</text>
  <rect x="658" y="312" width="492" height="206" rx="20" fill="white" stroke="#111827" stroke-width="2"/>
  <text x="690" y="358" fill="#111827" font-family="Inter, Apple SD Gothic Neo, sans-serif" font-size="24" font-weight="700">스크롤 동기화 도구</text>
  <line x1="690" y1="384" x2="1118" y2="384" stroke="#E5E7EB" stroke-width="2"/>
  <text x="690" y="430" fill="#111827" font-family="Inter, Apple SD Gothic Neo, sans-serif" font-size="20" font-weight="700">페이지 이동도 동기화</text>
  <text x="690" y="458" fill="#6B7280" font-family="Inter, Apple SD Gothic Neo, sans-serif" font-size="17">켜짐 · 변경한 탭 따라가기</text>
  <rect x="1028" y="412" width="72" height="38" rx="19" fill="#111827"/>
  <circle cx="1080" cy="431" r="16" fill="white"/>
  <line x1="690" y1="486" x2="1118" y2="486" stroke="#E5E7EB" stroke-width="2"/>
  <text x="690" y="530" fill="#6B7280" font-family="Inter, Apple SD Gothic Neo, sans-serif" font-size="18">동기화된 탭</text>
  <text x="690" y="562" fill="#111827" font-family="Inter, Apple SD Gothic Neo, sans-serif" font-size="20" font-weight="700">Inside look at modern web browsers</text>
  <text x="1058" y="562" fill="#6B7280" font-family="Inter, sans-serif" font-size="20" font-weight="700">+124px</text>
  <text x="658" y="612" fill="#374151" font-family="Inter, Apple SD Gothic Neo, sans-serif" font-size="18">연결 상태, 보정값, URL Sync 설정을 한 번에 확인해요.</text>
</svg>
