<svg width="1344" height="768" viewBox="0 0 1344 768" fill="none" xmlns="http://www.w3.org/2000/svg">
  <rect width="1344" height="768" rx="32" fill="#F8FAFC"/>
  <text x="72" y="70" fill="#111827" font-family="Inter, Apple SD Gothic Neo, sans-serif" font-size="34" font-weight="700">부드러운 스크롤은 동기화 지연처럼 보일 수 있어요</text>
  <text x="72" y="102" fill="#64748B" font-family="Inter, Apple SD Gothic Neo, sans-serif" font-size="18">수신 탭에서 모든 메시지를 순서대로 재생하면 이미 지나간 위치를 뒤늦게 따라가게 돼요.</text>

  <g font-family="Inter, Apple SD Gothic Neo, sans-serif">
    <rect x="72" y="158" width="560" height="430" rx="28" fill="white" stroke="#D8DEE8"/>
    <rect x="108" y="196" width="182" height="36" rx="18" fill="#FEE2E2"/>
    <text x="136" y="220" fill="#B91C1C" font-size="16" font-weight="700">기존 방식</text>
    <text x="108" y="278" fill="#111827" font-size="22" font-weight="700">들어온 위치를 모두 적용</text>
    <text x="108" y="314" fill="#64748B" font-size="16">smooth scroll이 각 위치를 애니메이션화하면서</text>
    <text x="108" y="340" fill="#64748B" font-size="16">수신 탭은 오래된 위치를 순서대로 따라가요.</text>

    <rect x="122" y="392" width="80" height="56" rx="16" fill="#F8FAFC" stroke="#CBD5E1"/>
    <text x="145" y="426" fill="#334155" font-size="17" font-weight="700">120</text>
    <path d="M220 420H264" stroke="#CBD5E1" stroke-width="3" stroke-linecap="round"/>
    <path d="M254 408L266 420L254 432" stroke="#CBD5E1" stroke-width="3" stroke-linecap="round" stroke-linejoin="round"/>
    <rect x="284" y="392" width="80" height="56" rx="16" fill="#F8FAFC" stroke="#CBD5E1"/>
    <text x="307" y="426" fill="#334155" font-size="17" font-weight="700">480</text>
    <path d="M382 420H426" stroke="#CBD5E1" stroke-width="3" stroke-linecap="round"/>
    <path d="M416 408L428 420L416 432" stroke="#CBD5E1" stroke-width="3" stroke-linecap="round" stroke-linejoin="round"/>
    <rect x="446" y="392" width="80" height="56" rx="16" fill="#F8FAFC" stroke="#CBD5E1"/>
    <text x="469" y="426" fill="#334155" font-size="17" font-weight="700">920</text>
    <text x="108" y="516" fill="#B91C1C" font-size="17" font-weight="700">결과: 스크롤이 밀리고 버벅이는 것처럼 보임</text>

    <rect x="712" y="158" width="560" height="430" rx="28" fill="white" stroke="#D8DEE8"/>
    <rect x="748" y="196" width="182" height="36" rx="18" fill="#DBEAFE"/>
    <text x="776" y="220" fill="#1D4ED8" font-size="16" font-weight="700">개선 방식</text>
    <text x="748" y="278" fill="#111827" font-size="22" font-weight="700">requestAnimationFrame마다 최신 위치만 적용</text>
    <text x="748" y="314" fill="#64748B" font-size="16">한 프레임 안에 여러 위치가 들어와도</text>
    <text x="748" y="340" fill="#64748B" font-size="16">마지막 위치 하나만 남겨 수신 탭을 최신 상태로 맞춰요.</text>

    <rect x="762" y="392" width="80" height="56" rx="16" fill="#F8FAFC" stroke="#CBD5E1"/>
    <text x="785" y="426" fill="#94A3B8" font-size="17" font-weight="700">120</text>
    <path d="M860 420H904" stroke="#CBD5E1" stroke-width="3" stroke-linecap="round"/>
    <path d="M894 408L906 420L894 432" stroke="#CBD5E1" stroke-width="3" stroke-linecap="round" stroke-linejoin="round"/>
    <rect x="924" y="392" width="80" height="56" rx="16" fill="#F8FAFC" stroke="#CBD5E1"/>
    <text x="947" y="426" fill="#94A3B8" font-size="17" font-weight="700">480</text>
    <path d="M1022 420H1066" stroke="#CBD5E1" stroke-width="3" stroke-linecap="round"/>
    <path d="M1056 408L1068 420L1056 432" stroke="#CBD5E1" stroke-width="3" stroke-linecap="round" stroke-linejoin="round"/>
    <rect x="1086" y="392" width="80" height="56" rx="16" fill="#DBEAFE" stroke="#3B82F6"/>
    <text x="1109" y="426" fill="#1D4ED8" font-size="17" font-weight="700">920</text>
    <text x="748" y="516" fill="#1D4ED8" font-size="17" font-weight="700">결과: 수신 탭이 오래된 위치를 뒤늦게 따라가지 않음</text>
  </g>

  <rect x="290" y="632" width="764" height="58" rx="22" fill="white" stroke="#D8DEE8"/>
  <text x="326" y="667" fill="#334155" font-family="Inter, Apple SD Gothic Neo, sans-serif" font-size="18" font-weight="700">아래 GIF에서는 smooth-scroll이 적용된 페이지에서 문제를 재현한 모습을 볼 수 있어요.</text>
</svg>
