<?xml version="1.0" standalone="no"?>
<!DOCTYPE svg PUBLIC "-//W3C//DTD SVG 20010904//EN"
 "http://www.w3.org/TR/2001/REC-SVG-20010904/DTD/svg10.dtd">
<svg version="1.0" xmlns="http://www.w3.org/2000/svg"
 width="914.891474pt" height="950.175355pt" viewBox="0 0 914.891474 950.175355"
 preserveAspectRatio="xMidYMid meet">
<metadata>
Created by potrace 1.16, written by Peter Selinger 2001-2019
</metadata>
<g transform="translate(-64.108526,983.826963) scale(0.100000,-0.100000)"
fill="#000000" stroke="none">
<path d="M7150 9833 c-632 -20 -1246 -144 -1777 -359 -543 -220 -1002 -574
-1329 -1029 -108 -150 -157 -246 -219 -433 l-41 -124 -53 -18 c-65 -24 -224
-108 -305 -163 -274 -184 -571 -489 -755 -772 -154 -237 -246 -456 -276 -659
-39 -267 -27 -466 46 -768 28 -113 39 -182 36 -205 l-6 -35 47 6 c47 6 47 6
-18 -17 -36 -13 -78 -32 -93 -42 -33 -21 -67 -83 -66 -117 1 -13 -10 -48 -24
-79 -35 -78 -48 -155 -37 -225 5 -31 11 -59 14 -61 2 -2 27 7 55 21 65 33 76
33 92 -6 45 -109 224 -312 364 -413 66 -48 68 -50 39 -53 -64 -6 -301 -52
-340 -66 -41 -14 -42 -14 -70 15 -62 65 -193 109 -324 109 -100 0 -176 -18
-262 -61 -70 -35 -160 -116 -178 -160 -8 -19 -22 -31 -39 -35 -72 -15 -112
-28 -122 -40 -6 -8 -26 -14 -43 -14 -61 0 -62 -15 -3 -59 67 -51 76 -68 41
-81 -14 -6 -33 -10 -41 -10 -9 0 -14 -3 -11 -6 4 -3 52 2 108 11 57 9 105 14
107 11 2 -2 -15 -7 -39 -11 -24 -4 -155 -29 -293 -56 -137 -26 -315 -59 -393
-73 -157 -27 -192 -44 -192 -96 0 -14 50 -224 110 -465 61 -242 109 -449 108
-460 -2 -11 -20 48 -41 130 -78 312 -99 390 -107 405 -19 31 -10 -131 15 -274
46 -268 174 -837 200 -886 9 -17 30 -39 47 -50 27 -16 432 -121 638 -165 41
-8 80 -19 86 -23 7 -4 28 -63 49 -132 87 -294 216 -528 370 -668 145 -132 367
-190 565 -148 105 23 154 42 370 146 113 55 232 107 265 116 117 32 536 28
888 -8 l108 -11 23 -52 c14 -30 28 -92 35 -148 20 -174 88 -321 202 -442 79
-82 155 -128 250 -149 191 -41 341 -51 428 -26 149 41 264 126 526 387 245
244 260 253 412 253 425 0 794 128 1080 376 80 69 197 206 271 319 36 55 66
101 67 102 1 2 37 -4 81 -13 192 -38 438 25 565 143 52 49 58 66 34 100 -14
19 -11 26 40 94 66 89 128 211 151 299 26 94 26 298 0 363 -12 33 -23 47 -32
43 -10 -4 -14 2 -14 18 0 13 -18 60 -40 104 -50 99 -133 182 -209 207 -66 22
-75 15 -66 -51 l6 -53 -58 35 c-92 55 -148 67 -287 62 -84 -4 -139 -12 -179
-25 l-58 -20 -25 33 c-13 19 -36 50 -50 70 -54 74 -212 228 -304 298 -113 85
-257 172 -379 228 -272 126 -294 138 -366 212 -39 39 -91 100 -116 136 -53 75
-189 303 -189 317 0 5 33 19 73 32 171 55 412 187 551 303 42 35 64 47 78 42
40 -12 140 82 242 228 52 74 96 168 127 268 l20 68 82 4 c47 2 99 11 122 21
l39 18 -26 22 c-26 21 -108 155 -108 176 0 5 18 12 40 16 52 9 129 61 154 104
l20 34 -29 21 c-197 146 -421 499 -590 931 -164 421 -250 578 -427 783 -50 57
-88 106 -85 108 2 3 143 20 313 39 528 59 730 97 1046 196 611 192 1236 586
1601 1008 109 127 182 237 247 373 58 122 80 200 80 284 0 76 -25 118 -90 150
-178 88 -677 89 -1194 3 -129 -22 -469 -100 -537 -124 -79 -28 -82 -24 -48 53
61 135 16 209 -154 253 -73 19 -346 40 -467 37 -36 -1 -103 -3 -150 -5z m427
-103 c184 -14 243 -42 243 -115 0 -41 -65 -156 -109 -193 -9 -7 -61 -26 -116
-43 -252 -77 -676 -266 -910 -407 -206 -123 -492 -331 -645 -467 -41 -37 -84
-73 -96 -81 -21 -14 -189 -67 -489 -154 -93 -27 -204 -60 -245 -73 -41 -13
-111 -27 -154 -31 l-80 -7 69 73 70 73 -57 3 c-33 2 -108 -8 -180 -22 -104
-22 -143 -35 -253 -90 -71 -36 -157 -83 -190 -105 -57 -38 -63 -40 -115 -35
-63 6 -252 -37 -344 -79 l-53 -25 32 82 c104 263 207 416 450 665 341 350 688
566 1205 749 491 175 1020 268 1615 285 50 2 119 4 155 5 36 1 124 -3 197 -8z
m1963 -169 c25 -6 55 -13 67 -16 40 -9 83 -54 83 -87 0 -73 -91 -291 -173
-413 -91 -136 -270 -324 -457 -481 -297 -249 -768 -511 -1143 -635 -335 -111
-550 -154 -1027 -204 -251 -26 -550 -68 -630 -87 -25 -6 -88 -30 -141 -54 -53
-24 -101 -44 -108 -44 -6 0 -11 -4 -11 -8 0 -5 30 -14 67 -21 36 -7 79 -19 95
-27 17 -9 32 -13 35 -11 7 7 -69 57 -87 57 -13 0 -13 1 0 10 26 17 56 11 81
-16 13 -14 32 -30 43 -36 17 -9 18 -7 12 18 -4 16 -9 37 -12 47 -4 13 1 17 25
17 66 0 256 -186 373 -365 87 -133 146 -255 243 -500 111 -279 162 -392 237
-530 89 -161 181 -290 270 -378 44 -42 76 -81 73 -87 -21 -34 -157 -14 -242
36 l-41 24 48 -93 c53 -102 95 -220 86 -242 -8 -23 -54 -1 -109 53 l-48 47 8
-45 c4 -25 7 -81 7 -125 -3 -130 -68 -279 -169 -390 l-46 -50 6 80 6 80 -24
-50 c-117 -246 -466 -462 -1037 -642 -153 -48 -147 -56 13 -16 l108 26 65 -64
c45 -44 80 -92 114 -156 90 -168 215 -322 331 -409 26 -19 131 -72 234 -119
268 -122 443 -241 602 -409 320 -337 426 -769 302 -1225 -23 -85 -91 -225
-158 -326 -103 -156 -330 -354 -510 -444 -92 -47 -281 -107 -393 -126 -100
-16 -341 -25 -353 -13 -4 4 13 31 38 59 26 29 45 54 43 56 -3 4 -31 -13 -211
-129 -92 -59 -145 -106 -330 -288 -282 -278 -388 -350 -544 -366 -79 -9 -133
9 -185 59 l-44 42 5 -33 c6 -32 5 -32 -34 -32 -132 0 -244 97 -339 295 -36 73
-47 109 -59 195 -8 59 -30 151 -50 209 -48 140 -82 273 -96 378 -6 49 -20 106
-29 128 -79 180 -35 351 132 511 110 105 207 151 347 167 133 15 217 1 328
-53 184 -90 306 -304 343 -600 13 -110 19 -144 25 -138 13 13 23 251 15 348
-16 180 -84 347 -167 406 -71 52 -246 124 -299 124 -36 0 -37 16 -6 63 156
226 424 360 752 374 192 8 411 -37 548 -113 l47 -26 -30 27 c-119 106 -288
168 -520 190 -66 6 -236 -6 -315 -21 l-35 -7 50 47 50 47 -50 -32 -50 -33 19
29 c11 17 34 48 51 70 18 22 40 54 50 70 15 24 7 19 -36 -21 -114 -108 -325
-252 -495 -337 -119 -60 -432 -165 -733 -247 l-63 -17 38 -6 c22 -4 65 -7 97
-7 54 0 57 -1 57 -25 0 -18 -7 -28 -26 -35 -34 -13 -37 -13 -30 5 3 8 1 15 -4
15 -6 0 -10 -7 -10 -15 0 -18 -7 -20 -397 -105 -313 -69 -429 -97 -406 -99 6
-1 58 10 115 23 166 39 690 148 723 150 44 2 55 13 55 55 l0 38 73 6 c39 3 73
4 74 3 2 -2 -82 -70 -161 -130 -124 -95 -218 -215 -275 -348 -23 -56 -26 -76
-26 -178 1 -110 2 -118 33 -178 27 -53 34 -81 42 -170 6 -59 15 -129 20 -156
6 -27 9 -50 7 -52 -5 -5 -92 29 -227 88 -146 63 -217 114 -361 257 -149 149
-216 249 -347 524 -2 4 4 7 14 7 9 0 15 2 12 5 -8 9 -772 -153 -1137 -240
-177 -43 -201 -44 -201 -10 0 14 -6 27 -12 29 -7 2 -65 15 -128 29 -63 14
-214 48 -335 76 -121 28 -249 57 -285 65 -38 8 -66 11 -68 5 -5 -14 -23 -11
-36 6 -6 8 -24 16 -41 17 -16 1 -39 9 -50 19 -31 27 -70 40 -84 26 -8 -8 -11
-6 -11 10 0 12 -2 30 -5 40 -4 12 -2 10 6 -4 6 -12 17 -24 24 -26 12 -5 234
39 243 48 2 2 -7 10 -22 16 -52 24 -36 30 206 74 166 30 604 118 898 180 269
57 589 121 664 133 55 9 56 8 56 -15 0 -15 -8 -27 -22 -33 -31 -14 -287 -70
-317 -70 -13 0 -40 -4 -60 -10 -20 -5 -139 -30 -266 -55 -126 -24 -279 -56
-340 -70 -60 -14 -175 -38 -255 -55 -80 -16 -161 -34 -180 -40 -19 -5 -52 -10
-73 -10 -54 0 -260 -58 -212 -60 6 0 78 -14 160 -31 83 -16 166 -31 185 -31
19 -1 152 24 295 55 605 130 1117 217 1155 196 10 -6 0 -9 -30 -10 l-45 -2 55
-7 c100 -13 201 -32 197 -37 -3 -2 -31 0 -63 6 -109 19 -276 33 -283 24 -3 -5
-89 -25 -191 -46 -288 -57 -400 -80 -397 -83 1 -1 90 -17 198 -35 l196 -32
147 33 c90 20 142 36 134 41 -7 5 5 6 27 4 27 -4 34 -3 21 3 -19 8 -18 9 4 15
13 3 27 2 30 -2 6 -9 70 -2 70 8 0 3 10 6 23 7 57 1 388 36 437 46 96 18 217
57 309 98 49 22 102 40 117 41 l29 1 -30 9 c-26 8 -45 2 -135 -40 -147 -70
-283 -104 -381 -97 -85 6 -118 16 -172 53 -48 33 -75 78 -98 161 l-18 67 6
-65 c10 -121 12 -115 -24 -118 -47 -5 -68 11 -100 75 -25 53 -28 68 -28 163 0
94 3 111 27 161 38 75 148 181 230 219 102 47 171 61 358 71 233 12 277 17
284 35 3 8 12 14 19 14 37 0 484 241 502 270 8 13 11 14 -86 -15 -99 -29 -105
-30 -89 -10 11 13 10 14 -4 9 -9 -3 -16 -10 -16 -14 0 -9 -89 -70 -101 -70 -4
0 3 26 16 58 13 31 22 59 20 61 -3 2 -33 -23 -69 -55 -70 -64 -211 -146 -291
-169 -77 -23 -227 -36 -241 -22 -7 7 -26 75 -44 152 -17 77 -38 157 -46 178
-23 62 -18 78 38 130 l53 48 -53 -26 c-29 -14 -57 -23 -62 -20 -24 15 -6 52
52 116 35 37 96 104 136 148 60 66 82 83 120 94 l47 14 -70 5 c-109 9 -375 76
-405 103 -34 31 -64 45 -93 45 -30 0 -395 -71 -755 -146 -145 -31 -266 -53
-269 -51 -2 3 4 8 14 11 46 13 533 117 662 141 152 27 204 44 141 45 -86 1
-310 112 -443 220 -40 32 -99 92 -132 135 -60 76 -121 172 -114 180 2 2 47 11
98 20 124 21 263 67 331 108 49 30 55 37 62 77 23 133 32 160 84 247 54 91 54
92 54 176 0 318 -169 603 -360 606 -19 1 -60 -11 -90 -26 l-55 -26 43 -10 c23
-6 41 -15 39 -21 -2 -6 -27 -24 -57 -40 -51 -28 -53 -30 -29 -38 13 -5 34 -7
47 -5 12 2 22 4 22 3 0 0 -7 -34 -15 -75 -18 -85 -21 -245 -6 -311 6 -25 19
-72 31 -104 11 -33 20 -62 20 -66 0 -4 -43 -8 -95 -9 l-95 -1 0 38 c-1 42 -13
110 -60 332 -29 138 -33 173 -33 320 -1 182 10 270 54 429 80 286 324 653 621
936 220 209 431 350 644 431 34 12 79 35 100 49 99 68 300 150 346 143 21 -4
17 -10 -42 -67 -38 -37 -50 -53 -30 -39 19 14 77 46 129 72 51 26 134 79 184
116 117 89 205 132 347 170 63 16 116 30 118 30 1 0 2 -6 2 -13 0 -13 -98
-100 -218 -194 -61 -48 -61 -48 23 -28 139 35 395 29 595 -13 l85 -18 -3 -34
c-4 -54 6 -69 26 -39 46 68 97 119 199 200 61 49 114 93 118 99 10 16 25 12
25 -7 0 -10 -33 -57 -73 -104 -39 -47 -79 -94 -87 -105 -8 -10 50 43 129 119
262 252 610 537 816 669 300 193 663 364 1034 488 458 154 863 246 1271 289
112 12 572 6 630 -8z m-3950 -1374 c0 -2 -19 -17 -42 -34 -38 -27 -54 -31
-133 -37 -102 -7 -99 4 6 29 35 8 84 21 109 29 48 16 60 18 60 13z m-2761
-2379 c-40 -183 -33 -327 24 -467 l25 -61 -27 6 c-14 4 -32 12 -40 19 -42 40
-64 278 -37 403 13 65 58 182 69 182 2 0 -4 -37 -14 -82z m181 -43 c43 -46 22
-145 -32 -145 -72 0 -101 112 -41 158 25 18 47 15 73 -13z m-45 -495 c62 -43
66 -56 7 -26 -27 14 -52 32 -55 41 -9 21 -2 19 48 -15z m-123 -76 c13 -11 52
-35 88 -54 36 -18 67 -34 69 -36 1 -1 -5 -26 -14 -54 -12 -37 -26 -57 -49 -71
-49 -31 -146 -57 -273 -75 -65 -8 -120 -18 -123 -21 -3 -3 31 -3 75 0 47 3 68
2 50 -3 -48 -12 -122 -11 -133 3 -6 6 -13 24 -17 38 -6 26 -7 26 -38 12 -18
-8 -40 -18 -49 -24 -10 -5 -20 -9 -23 -9 -28 0 59 167 151 288 14 18 92 32
171 30 76 -3 95 -6 115 -24z m-582 -998 c29 -16 72 -40 93 -54 39 -26 39 -27
16 -33 -13 -4 -48 -7 -76 -8 -29 -1 -53 -5 -53 -9 0 -5 -44 -16 -97 -26 -54
-9 -158 -30 -231 -47 -73 -16 -135 -29 -137 -29 -16 0 0 63 24 103 34 52 88
92 164 119 81 29 224 21 297 -16z m1201 -124 c6 -31 31 -129 55 -216 24 -88
42 -161 41 -162 -1 -1 -34 -18 -74 -38 -95 -47 -211 -118 -423 -258 -223 -148
-574 -383 -664 -445 -77 -53 -133 -82 -157 -83 -9 0 -26 9 -39 20 -47 41 -272
112 -605 190 -220 52 -475 106 -588 125 -29 5 -37 10 -37 27 0 11 -18 101 -40
199 -22 99 -41 184 -43 191 -2 12 69 27 808 178 242 49 649 132 905 185 607
125 822 165 837 153 7 -5 17 -35 24 -66z m220 -12 c45 -10 83 -21 85 -22 1 -2
-24 -37 -57 -78 -32 -41 -59 -78 -59 -82 0 -5 -4 -8 -9 -8 -5 0 -16 33 -25 73
-25 113 -29 137 -23 137 3 0 43 -9 88 -20z m-2031 -40 c0 -58 -41 -67 -100
-21 -29 23 -26 28 27 46 64 23 73 20 73 -25z m1270 -866 c0 -8 -4 -12 -10 -9
-5 3 -10 10 -10 16 0 5 5 9 10 9 6 0 10 -7 10 -16z m-60 -114 c0 -5 -4 -10
-10 -10 -5 0 -10 5 -10 10 0 6 5 10 10 10 6 0 10 -4 10 -10z m5243 -43 c90
-41 133 -80 155 -140 l20 -52 24 80 24 80 19 -28 c23 -36 45 -119 45 -173 0
-23 -11 -78 -23 -123 -13 -44 -22 -81 -20 -81 16 0 67 48 99 92 33 44 39 48
45 32 22 -55 2 -211 -40 -319 -54 -139 -206 -324 -280 -340 -17 -4 -33 -11
-36 -15 -8 -12 52 -28 93 -25 81 7 -10 -53 -133 -86 -138 -37 -356 -25 -341
20 100 298 111 515 40 795 -21 83 -39 135 -91 262 -4 11 44 31 112 48 11 2 67
4 125 3 90 -2 113 -6 163 -30z m-6803 -34 c0 -7 -7 -13 -15 -13 -8 0 -15 6
-15 13 0 8 7 14 15 14 8 0 15 -6 15 -14z m330 -12 c0 -20 -26 -36 -35 -21 -8
13 6 40 21 40 8 0 14 -9 14 -19z m600 -101 c0 -5 -6 -10 -14 -10 -8 0 -18 5
-21 10 -3 6 3 10 14 10 12 0 21 -4 21 -10z m-270 -30 c0 -5 -4 -10 -10 -10 -5
0 -10 5 -10 10 0 6 5 10 10 10 6 0 10 -4 10 -10z m-542 -53 c2 -10 -3 -17 -12
-17 -18 0 -29 16 -21 31 9 14 29 6 33 -14z m-441 -79 c-3 -8 -6 -5 -6 6 -1 11
2 17 5 13 3 -3 4 -12 1 -19z m21 -83 c0 -16 -2 -15 -8 5 -4 14 -8 34 -8 45 0
16 2 15 8 -5 4 -14 8 -34 8 -45z m4032 -64 c-41 -48 -42 -49 -143 -68 l-101
-20 39 35 c36 31 194 100 233 101 7 1 -5 -21 -28 -48z m-1646 -530 c7 -9 34
-52 61 -96 129 -216 256 -341 515 -505 156 -99 154 -97 62 -88 -42 3 -161 7
-263 7 -300 1 -375 -18 -717 -187 -190 -94 -276 -122 -374 -122 -69 0 -85 10
-57 36 26 23 52 71 47 86 -3 7 -14 -5 -27 -25 -52 -85 -108 -97 -210 -46 -117
59 -213 169 -319 369 -54 101 -113 245 -143 348 l-18 62 23 0 c37 0 51 -20 86
-120 69 -199 177 -373 268 -431 37 -23 57 -29 102 -29 191 0 230 200 115 596
-8 26 -8 26 370 104 240 49 305 59 378 58 65 -1 91 -6 101 -17z m-1544 -1 c0
-5 -5 -10 -11 -10 -5 0 -7 -4 -4 -10 7 -11 -9 -11 -45 0 -23 7 -23 8 -3 9 12
1 25 6 28 11 3 6 13 10 21 10 8 0 14 -4 14 -10z"/>
<path d="M9185 9414 c-537 -82 -1140 -291 -1496 -520 -104 -66 -242 -168 -354
-259 -251 -205 -489 -373 -675 -475 -181 -100 -269 -154 -357 -219 -79 -60
-307 -261 -301 -267 2 -1 35 13 73 32 83 41 313 116 420 139 43 8 190 29 329
46 356 42 581 101 1006 264 301 116 442 180 630 288 456 262 779 564 932 872
61 121 63 115 -34 114 -46 -1 -123 -7 -173 -15z"/>
<path d="M4495 6666 c-190 -48 -338 -192 -412 -400 l-14 -41 48 46 c175 167
394 281 593 307 75 10 236 2 262 -14 10 -6 11 -5 1 7 -23 28 -110 69 -189 89
-88 23 -212 25 -289 6z"/>
<path d="M2713 6507 c-13 -7 -36 -33 -51 -58 l-29 -45 54 4 c47 4 63 0 126
-31 40 -20 100 -58 134 -86 l62 -50 -19 45 c-53 122 -167 235 -237 234 -10 -1
-28 -6 -40 -13z"/>
<path d="M4590 6139 c-142 -24 -298 -144 -372 -284 -61 -116 -82 -209 -82
-360 0 -171 10 -278 30 -320 63 -133 225 -215 424 -215 247 0 473 168 551 410
11 36 23 72 26 80 3 8 7 21 9 28 7 38 99 89 249 140 162 55 241 67 440 66 155
0 189 -3 243 -21 34 -12 62 -19 62 -17 0 9 -132 75 -190 95 -156 54 -456 13
-761 -106 -13 -5 -18 4 -23 46 -10 71 -33 136 -67 186 -31 45 -27 53 29 53 69
1 52 18 -95 97 -211 115 -333 147 -473 122z m226 -213 c45 -45 47 -95 5 -137
-24 -24 -38 -29 -76 -29 -94 0 -139 98 -79 169 22 26 33 31 71 31 38 0 50 -5
79 -34z m310 -288 c5 -28 2 -35 -23 -50 l-28 -16 0 66 c0 37 -3 87 -7 112 l-7
45 30 -62 c17 -34 32 -76 35 -95z m-838 -220 c26 -42 90 -104 98 -95 4 3 -7
22 -24 42 -18 19 -39 50 -47 68 l-16 32 20 -25 c18 -23 25 -25 88 -22 37 2 72
6 77 9 5 3 6 1 2 -5 -4 -7 -1 -12 8 -12 8 0 16 -4 18 -8 2 -5 66 7 143 25 81
19 174 35 222 37 51 2 89 8 100 17 10 8 -6 -16 -35 -52 -28 -37 -52 -70 -52
-73 0 -15 37 -3 98 34 37 22 68 36 70 30 2 -6 -3 -31 -12 -57 -54 -157 -221
-293 -396 -323 -160 -27 -335 40 -421 161 -17 24 -19 33 -9 45 10 11 10 18 -3
32 -41 45 -48 202 -12 275 l18 38 22 -69 c12 -39 32 -85 43 -104z"/>
<path d="M5210 5485 c-11 -13 -10 -14 4 -9 9 3 16 10 16 15 0 13 -6 11 -20 -6z"/>
<path d="M3473 5273 c26 -2 67 -2 90 0 23 2 2 3 -48 3 -49 0 -68 -1 -42 -3z"/>
<path d="M3580 5263 c-67 -5 -294 -45 -304 -54 -13 -12 147 -169 173 -169 15
0 57 35 127 106 58 58 104 108 102 109 -7 8 -56 12 -98 8z"/>
<path d="M3336 5251 c-4 -5 3 -7 14 -4 23 6 26 13 6 13 -8 0 -17 -4 -20 -9z"/>
<path d="M3920 5155 c0 -9 5 -15 11 -13 6 2 11 8 11 13 0 5 -5 11 -11 13 -6 2
-11 -4 -11 -13z"/>
<path d="M3813 5095 c-3 -9 -3 -19 1 -22 8 -9 37 18 30 28 -8 14 -24 11 -31
-6z"/>
<path d="M3150 5070 c0 -5 5 -10 11 -10 5 0 7 5 4 10 -3 6 -8 10 -11 10 -2 0
-4 -4 -4 -10z"/>
<path d="M3914 4989 c-9 -16 10 -31 30 -23 13 5 14 9 5 20 -14 17 -25 18 -35
3z"/>
<path d="M3221 4970 c-16 -9 -6 -30 15 -30 15 0 20 25 6 34 -4 2 -14 1 -21 -4z"/>
<path d="M3466 4913 c-4 -41 -16 -75 -36 -106 -29 -46 -44 -54 -130 -70 -14
-3 9 -5 50 -5 135 -1 148 -2 173 -22 14 -12 37 -51 52 -90 28 -74 45 -89 45
-41 0 16 8 39 18 51 17 20 22 22 53 12 19 -6 50 -12 69 -14 32 -2 90 -38 62
-38 -7 0 -12 -8 -12 -19 0 -40 -86 -71 -142 -52 -25 9 -30 9 -21 0 7 -7 35
-14 62 -17 69 -6 113 24 176 120 55 82 59 86 135 128 85 47 116 76 41 39 -87
-43 -170 -49 -305 -20 -153 32 -220 74 -264 165 l-19 39 -7 -60z"/>
<path d="M3692 4953 c2 -10 10 -18 18 -18 22 0 18 29 -3 33 -14 3 -18 -1 -15
-15z"/>
<path d="M3295 4880 c3 -5 8 -10 11 -10 2 0 4 5 4 10 0 6 -5 10 -11 10 -5 0
-7 -4 -4 -10z"/>
<path d="M3795 4870 c3 -5 10 -10 16 -10 5 0 9 5 9 10 0 6 -7 10 -16 10 -8 0
-12 -4 -9 -10z"/>
<path d="M4225 2511 c-6 -5 -21 -12 -35 -15 -14 -2 16 -3 65 0 107 6 140 24
44 24 -36 0 -69 -4 -74 -9z"/>
<path d="M3562 2218 c-46 -11 -82 -22 -79 -24 2 -2 48 7 103 20 54 13 90 24
79 24 -11 0 -57 -9 -103 -20z"/>
<path d="M4530 1842 c0 -7 17 -28 39 -48 l38 -37 -18 -61 c-41 -134 -18 -328
70 -598 68 -205 107 -262 221 -316 73 -34 178 -37 230 -6 73 42 110 147 110
306 -1 202 -45 381 -131 524 -32 53 -195 224 -222 233 -7 2 -6 -4 4 -15 33
-39 31 -41 -34 -32 -34 5 -97 7 -140 3 -81 -6 -103 0 -144 38 -13 11 -23 15
-23 9z"/>
<path d="M3914 1572 c7 -11 98 -78 161 -118 68 -43 8 9 -76 66 -51 35 -89 58
-85 52z"/>
<path d="M2245 3479 c-4 -6 -5 -12 -2 -15 2 -3 7 2 10 11 7 17 1 20 -8 4z"/>
<path d="M2233 3400 c0 -30 2 -43 4 -27 2 15 2 39 0 55 -2 15 -4 2 -4 -28z"/>
<path d="M2250 3301 c0 -6 4 -13 10 -16 6 -3 7 1 4 9 -7 18 -14 21 -14 7z"/>
<path d="M2083 3274 c-3 -8 0 -21 6 -27 9 -9 11 -8 5 7 -4 11 -2 21 7 27 10 6
11 9 1 9 -7 0 -15 -7 -19 -16z"/>
<path d="M2158 3263 c7 -3 16 -2 19 1 4 3 -2 6 -13 5 -11 0 -14 -3 -6 -6z"/>
<path d="M2233 3256 c0 -7 9 -18 19 -25 10 -6 18 -7 18 -3 0 5 -8 16 -18 25
-14 13 -19 14 -19 3z"/>
<path d="M2198 3253 c7 -3 16 -2 19 1 4 3 -2 6 -13 5 -11 0 -14 -3 -6 -6z"/>
<path d="M2264 3182 c17 -17 39 -32 50 -31 19 0 18 1 -4 10 -14 6 -36 20 -50
32 -19 16 -18 14 4 -11z"/>
</g>
</svg>
